Normalized EMG Linear Envelopes
nRows=21
nColumns=17

endheader
time	        VM	        VL	        RF	       GRA	        TA	   ADDLONG	   SEMIMEM	      BFLH	        GM	        GL	       TFL	   GLUTMAX	   GLUTMED	      PIRI	    OBTINT	        QF	
2.255	  0.023119	  0.023352	  0.169702	  0.055077	  0.174851	  0.023988	  0.000000	  0.005824	  0.017151	  0.012551	  0.113521	  0.020142	  0.151741	  0.297054	  1.036731	  0.370489	
2.2555	  0.022853	  0.023390	  0.169678	  0.053592	  0.173638	  0.023464	  0.000000	  0.005385	  0.017066	  0.012479	  0.111359	  0.020246	  0.151427	  0.296840	  1.037266	  0.372700	
2.256	  0.022589	  0.023428	  0.169644	  0.052134	  0.172445	  0.022949	  0.000000	  0.004953	  0.016980	  0.012408	  0.109217	  0.020357	  0.151139	  0.296603	  1.037611	  0.374873	
2.2565	  0.022326	  0.023466	  0.169598	  0.050703	  0.171273	  0.022442	  0.000000	  0.004529	  0.016892	  0.012337	  0.107095	  0.020475	  0.150875	  0.296343	  1.037767	  0.377008	
2.257	  0.022066	  0.023502	  0.169541	  0.049299	  0.170120	  0.021944	  0.000000	  0.004113	  0.016802	  0.012267	  0.104994	  0.020599	  0.150638	  0.296059	  1.037738	  0.379103	
2.2575	  0.021807	  0.023537	  0.169471	  0.047923	  0.168988	  0.021454	  0.000000	  0.003705	  0.016711	  0.012198	  0.102913	  0.020731	  0.150425	  0.295752	  1.037527	  0.381158	
2.258	  0.021549	  0.023571	  0.169388	  0.046573	  0.167876	  0.020972	  0.000000	  0.003304	  0.016617	  0.012129	  0.100853	  0.020870	  0.150239	  0.295421	  1.037136	  0.383172	
2.2585	  0.021294	  0.023603	  0.169290	  0.045250	  0.166784	  0.020499	  0.000000	  0.002912	  0.016522	  0.012061	  0.098814	  0.021016	  0.150077	  0.295067	  1.036572	  0.385144	
2.259	  0.021040	  0.023633	  0.169176	  0.043954	  0.165712	  0.020034	  0.000000	  0.002529	  0.016425	  0.011993	  0.096796	  0.021170	  0.149942	  0.294689	  1.035838	  0.387073	
2.2595	  0.020788	  0.023662	  0.169047	  0.042685	  0.164660	  0.019578	  0.000000	  0.002154	  0.016326	  0.011926	  0.094800	  0.021331	  0.149832	  0.294288	  1.034940	  0.388959	
2.26	  0.020537	  0.023689	  0.168900	  0.041444	  0.163629	  0.019130	  0.000000	  0.001788	  0.016226	  0.011860	  0.092826	  0.021500	  0.149747	  0.293864	  1.033885	  0.390800	
2.2605	  0.020288	  0.023714	  0.168735	  0.040229	  0.162617	  0.018690	  0.000000	  0.001432	  0.016124	  0.011794	  0.090874	  0.021677	  0.149688	  0.293418	  1.032677	  0.392597	
2.261	  0.020041	  0.023737	  0.168552	  0.039041	  0.161625	  0.018259	  0.000000	  0.001085	  0.016020	  0.011729	  0.088944	  0.021861	  0.149654	  0.292950	  1.031322	  0.394348	
2.2615	  0.019795	  0.023757	  0.168349	  0.037880	  0.160653	  0.017835	  0.000000	  0.000747	  0.015914	  0.011664	  0.087036	  0.022054	  0.149646	  0.292460	  1.029827	  0.396052	
2.262	  0.019551	  0.023774	  0.168125	  0.036746	  0.159701	  0.017421	  0.000000	  0.000419	  0.015806	  0.011600	  0.085151	  0.022255	  0.149663	  0.291950	  1.028196	  0.397709	
2.2625	  0.019308	  0.023789	  0.167881	  0.035639	  0.158767	  0.017014	  0.000000	  0.000101	  0.015697	  0.011537	  0.083287	  0.022464	  0.149705	  0.291419	  1.026434	  0.399317	
2.263	  0.019066	  0.023800	  0.167614	  0.034559	  0.157853	  0.016615	  0.000000	  0.000000	  0.015586	  0.011474	  0.081447	  0.022682	  0.149771	  0.290868	  1.024547	  0.400875	
2.2635	  0.018826	  0.023809	  0.167324	  0.033505	  0.156959	  0.016225	  0.000000	  0.000000	  0.015474	  0.011411	  0.079629	  0.022909	  0.149863	  0.290298	  1.022540	  0.402383	
2.264	  0.018587	  0.023814	  0.167011	  0.032478	  0.156082	  0.015843	  0.000000	  0.000000	  0.015359	  0.011349	  0.077833	  0.023144	  0.149979	  0.289708	  1.020417	  0.403839	
2.2645	  0.018349	  0.023815	  0.166673	  0.031477	  0.155225	  0.015468	  0.000000	  0.000000	  0.015244	  0.011288	  0.076060	  0.023388	  0.150119	  0.289099	  1.018183	  0.405241	
2.265	  0.018113	  0.023812	  0.166311	  0.030503	  0.154386	  0.015102	  0.000000	  0.000000	  0.015126	  0.011227	  0.074309	  0.023641	  0.150283	  0.288471	  1.015843	  0.406589	
